<?xml version="1.0" standalone="no"?>
<!DOCTYPE svg PUBLIC "-//W3C//DTD SVG 20010904//EN"
 "http://www.w3.org/TR/2001/REC-SVG-20010904/DTD/svg10.dtd">
<svg version="1.0" xmlns="http://www.w3.org/2000/svg"
 width="237.000000pt" height="271.000000pt" viewBox="0 0 237.000000 271.000000"
 preserveAspectRatio="xMidYMid meet">

<g transform="translate(0.000000,271.000000) scale(0.100000,-0.100000)"
fill="#000000" stroke="none">
<path d="M1905 2640 c-33 -4 -87 -9 -120 -10 -39 -1 -53 -4 -41 -9 26 -10 29
-38 4 -44 -10 -3 -18 -11 -17 -19 3 -28 -2 -38 -21 -38 -12 0 -20 -6 -19 -12
3 -29 -3 -36 -43 -42 -28 -5 -38 -10 -31 -17 5 -5 8 -21 5 -34 -5 -29 -32 -43
-32 -16 0 13 -8 18 -30 19 -25 1 -30 -3 -30 -23 0 -13 -10 -31 -22 -39 -18
-13 -19 -16 -5 -16 33 0 17 -18 -22 -25 -49 -8 -82 -31 -63 -43 9 -6 6 -12
-13 -20 -14 -7 -32 -12 -40 -12 -9 0 -15 -10 -15 -25 0 -19 -5 -25 -23 -25
-16 0 -27 -9 -36 -32 -13 -30 -14 -31 -18 -10 -5 26 -9 27 -30 7 -9 -10 -13
-25 -9 -39 4 -16 1 -26 -9 -30 -9 -3 -15 0 -15 9 0 8 -4 15 -10 15 -5 0 -10
-18 -10 -40 0 -38 -2 -40 -30 -40 -16 0 -30 -4 -30 -10 0 -5 -9 -10 -20 -10
-20 0 -27 -14 -12 -23 4 -2 1 -2 -6 -1 -17 5 -53 -27 -45 -39 3 -6 1 -7 -5 -3
-6 3 -13 2 -16 -3 -10 -16 25 -21 40 -6 26 25 29 17 4 -10 l-23 -25 94 0 94 0
102 107 c56 58 100 110 97 115 -3 5 -2 7 3 6 15 -5 55 30 48 42 -4 7 -1 10 6
8 8 -1 111 94 229 213 118 119 229 226 245 237 32 23 31 23 -60 12z m-505
-426 c0 -2 -9 -4 -21 -4 -11 0 -18 4 -14 10 5 8 35 3 35 -6z m-20 -139 c-7 -9
-15 -13 -19 -10 -3 3 1 10 9 15 21 14 24 12 10 -5z m-233 -151 c-3 -3 -12 -4
-19 -1 -8 3 -5 6 6 6 11 1 17 -2 13 -5z"/>
<path d="M1698 2623 c7 -3 16 -2 19 1 4 3 -2 6 -13 5 -11 0 -14 -3 -6 -6z"/>
<path d="M1318 2223 c7 -3 16 -2 19 1 4 3 -2 6 -13 5 -11 0 -14 -3 -6 -6z"/>
<path d="M1018 1913 c7 -3 16 -2 19 1 4 3 -2 6 -13 5 -11 0 -14 -3 -6 -6z"/>
<path d="M1050 836 c0 -5 -168 -175 -372 -378 l-373 -368 905 0 c579 0 918 4
941 10 38 11 49 28 49 83 0 23 -50 78 -297 325 -164 164 -307 305 -317 313
-15 11 -74 15 -278 19 -152 3 -258 1 -258 -4z"/>
</g>
</svg>
