<?xml version="1.0" standalone="no"?>
<!DOCTYPE svg PUBLIC "-//W3C//DTD SVG 20010904//EN"
 "http://www.w3.org/TR/2001/REC-SVG-20010904/DTD/svg10.dtd">
<svg version="1.0" xmlns="http://www.w3.org/2000/svg"
 width="473.000000pt" height="140.000000pt" viewBox="0 0 473.000000 140.000000"
 preserveAspectRatio="xMidYMid meet">

<g transform="translate(0.000000,140.000000) scale(0.100000,-0.100000)"
fill="#000000" stroke="none">
<path d="M1170 1313 c19 -3 38 -9 41 -15 4 -6 17 -4 35 6 29 15 28 15 -41 14
-38 -1 -54 -3 -35 -5z"/>
<path d="M3214 1295 c-39 -26 -46 -64 -42 -218 3 -138 4 -147 27 -171 l24 -26
436 0 435 0 33 -32 33 -32 0 33 c0 18 9 44 20 58 18 23 20 41 20 190 0 161 0
164 -25 188 l-24 25 -458 0 c-386 0 -462 -2 -479 -15z"/>
<path d="M856 989 c2 -4 -8 -10 -23 -12 -16 -2 -5 -4 24 -3 28 0 49 4 47 8 -3
4 -12 4 -21 1 -10 -4 -14 -2 -10 4 3 5 0 10 -8 10 -8 0 -12 -4 -9 -8z"/>
<path d="M2863 987 l-63 -10 0 -78 0 -79 -50 0 -51 0 3 -57 3 -58 48 -3 47 -3
0 -170 c0 -187 7 -218 57 -260 51 -42 110 -54 198 -38 l75 13 0 64 c0 57 -2
63 -17 56 -10 -4 -39 -9 -65 -12 -40 -3 -51 0 -73 22 -25 25 -25 28 -25 176
l0 150 90 0 90 0 0 60 0 60 -90 0 -90 0 0 90 c0 66 -3 90 -12 89 -7 -1 -41 -6
-75 -12z"/>
<path d="M3500 828 c-19 -5 -52 -23 -72 -39 -29 -23 -38 -26 -39 -14 -1 8 -2
21 -3 28 -1 8 -25 13 -73 15 l-73 3 0 -291 0 -290 80 0 80 0 0 181 c0 167 2
183 21 210 35 50 130 75 180 49 18 -10 19 -7 19 68 l0 80 -31 6 c-38 7 -44 7
-89 -6z"/>
<path d="M1581 821 c-126 -33 -214 -182 -196 -335 15 -140 85 -220 220 -255
76 -20 210 -11 288 20 26 11 27 15 27 80 l0 68 -52 -26 c-43 -22 -66 -26 -138
-27 -75 -1 -90 2 -122 24 -21 14 -46 43 -57 65 l-19 40 214 3 214 2 0 53 c0
54 -12 114 -32 157 -19 39 -80 100 -118 117 -41 17 -180 26 -229 14z m175
-128 c15 -9 33 -32 40 -50 27 -64 29 -63 -127 -63 l-141 0 6 28 c23 96 139
140 222 85z"/>
<path d="M2319 816 c-20 -7 -50 -22 -67 -34 -39 -28 -42 -28 -42 8 l0 30 -75
0 -75 0 0 -290 0 -290 79 0 79 0 4 194 c3 191 3 195 28 221 54 58 107 69 160
33 51 -35 58 -70 59 -270 l1 -178 76 0 76 0 -4 218 c-4 238 -10 268 -67 323
-50 47 -155 63 -232 35z"/>
<path d="M3845 820 c-105 -24 -100 -19 -103 -92 l-3 -66 60 24 c113 46 228 30
252 -33 22 -58 16 -63 -75 -63 -144 0 -236 -35 -277 -105 -28 -48 -25 -137 7
-184 61 -92 208 -107 328 -33 39 24 55 20 56 -15 0 -17 101 -37 144 -29 l36 7
0 54 c0 51 -2 55 -23 55 -43 0 -47 15 -47 171 0 199 -17 247 -105 291 -45 24
-183 33 -250 18z m212 -367 c-8 -48 -35 -83 -78 -105 -45 -23 -77 -22 -116 2
-27 16 -33 26 -33 52 1 66 38 87 149 88 l84 0 -6 -37z"/>
<path d="M653 283 c-95 -95 -173 -175 -173 -178 0 -3 199 -4 443 -3 l442 3 0
32 c1 29 -16 49 -140 172 l-140 139 -130 4 -130 3 -172 -172z"/>
</g>
</svg>
