<?xml version="1.0" encoding="UTF-8"?>
<!DOCTYPE svg PUBLIC "-//W3C//DTD SVG 1.1//EN" "http://www.w3.org/Graphics/SVG/1.1/DTD/svg11.dtd">
<svg xmlns="http://www.w3.org/2000/svg" version="1.1" width="473px" height="140px" style="shape-rendering:geometricPrecision; text-rendering:geometricPrecision; image-rendering:optimizeQuality; fill-rule:evenodd; clip-rule:evenodd" xmlns:xlink="http://www.w3.org/1999/xlink">
<g><path style="opacity:1" fill="#fdfdfd" d="M -0.5,-0.5 C 157.167,-0.5 314.833,-0.5 472.5,-0.5C 472.5,46.1667 472.5,92.8333 472.5,139.5C 314.833,139.5 157.167,139.5 -0.5,139.5C -0.5,92.8333 -0.5,46.1667 -0.5,-0.5 Z"/></g>
<g><path style="opacity:1" fill="#0ab1e2" d="M 38.5,8.5 C 62.1981,8.08509 85.8647,8.58509 109.5,10C 108.167,10.6667 108.167,11.3333 109.5,12C 106.289,13.1532 102.956,13.8198 99.5,14C 97.0426,15.5123 97.0426,16.8456 99.5,18C 96.9036,19.1356 94.237,19.969 91.5,20.5C 89.2828,25.2213 85.7828,28.888 81,31.5C 80.5172,32.448 80.3505,33.448 80.5,34.5C 76.7382,34.627 73.0715,35.2937 69.5,36.5C 70.6888,37.4287 72.0222,37.762 73.5,37.5C 73.238,38.9778 73.5713,40.3112 74.5,41.5C 77.8207,39.9964 79.9874,37.9964 81,35.5C 82.1685,36.0085 83.0019,36.8419 83.5,38C 82.6634,39.0113 82.33,40.1779 82.5,41.5C 81.448,41.3505 80.448,41.5172 79.5,42C 81.7078,42.1909 83.7078,42.6909 85.5,43.5C 79.1579,43.6662 72.8246,43.4995 66.5,43C 56.3629,33.8637 46.5295,24.3637 37,14.5C 36.0589,12.0106 36.5589,10.0106 38.5,8.5 Z"/></g>
<g><path style="opacity:1" fill="#05a2d1" d="M 38.5,8.5 C 67.6619,7.50194 96.9953,7.16861 126.5,7.5C 114.14,19.1937 102.14,31.1937 90.5,43.5C 88.8333,43.5 87.1667,43.5 85.5,43.5C 83.7078,42.6909 81.7078,42.1909 79.5,42C 80.448,41.5172 81.448,41.3505 82.5,41.5C 82.33,40.1779 82.6634,39.0113 83.5,38C 83.0019,36.8419 82.1685,36.0085 81,35.5C 79.9874,37.9964 77.8207,39.9964 74.5,41.5C 73.5713,40.3112 73.238,38.9778 73.5,37.5C 72.0222,37.762 70.6888,37.4287 69.5,36.5C 73.0715,35.2937 76.7382,34.627 80.5,34.5C 80.3505,33.448 80.5172,32.448 81,31.5C 85.7828,28.888 89.2828,25.2213 91.5,20.5C 94.237,19.969 96.9036,19.1356 99.5,18C 97.0426,16.8456 97.0426,15.5123 99.5,14C 102.956,13.8198 106.289,13.1532 109.5,12C 108.167,11.3333 108.167,10.6667 109.5,10C 85.8647,8.58509 62.1981,8.08509 38.5,8.5 Z"/></g>
<g><path style="opacity:1" fill="#132937" d="M 321.5,9.5 C 352.331,8.33603 383.331,8.16936 414.5,9C 416.286,9.78451 417.786,10.9512 419,12.5C 419.667,24.1667 419.667,35.8333 419,47.5C 417.955,48.3734 417.122,49.3734 416.5,50.5C 415.833,52.5 415.167,54.5 414.5,56.5C 412.5,55.1667 410.833,53.5 409.5,51.5C 408.859,50.5178 408.193,49.5178 407.5,48.5C 409.217,43.3876 410.05,38.0543 410,32.5C 410.333,32.1667 410.667,31.8333 411,31.5C 411.995,36.4535 412.662,41.4535 413,46.5C 413.667,36.5 413.667,26.5 413,16.5C 410.983,16.0745 409.149,16.0745 407.5,16.5C 406.493,19.4571 405.159,22.1238 403.5,24.5C 402.178,24.33 401.011,24.6634 400,25.5C 399.667,30.8333 399.333,36.1667 399,41.5C 398.167,43.5 397.333,45.5 396.5,47.5C 395.833,45.8333 395.167,44.1667 394.5,42.5C 391.249,43.9592 388.915,42.9592 387.5,39.5C 385.951,43.1697 383.451,44.1697 380,42.5C 379.517,41.552 379.351,40.552 379.5,39.5C 381.379,40.3414 383.379,40.6747 385.5,40.5C 385.43,33.7441 384.596,27.0774 383,20.5C 380.519,18.6863 377.685,18.0196 374.5,18.5C 371.887,25.6724 369.887,33.0057 368.5,40.5C 367.5,40.5 366.5,40.5 365.5,40.5C 362.939,41.831 360.439,41.4977 358,39.5C 355.79,42.2896 352.956,43.123 349.5,42C 348.773,40.6012 348.273,39.1012 348,37.5C 345.194,41.3883 341.694,42.3883 337.5,40.5C 341.585,40.5413 344.752,38.8746 347,35.5C 346.556,30.3871 345.056,30.2204 342.5,35C 341.216,35.6838 340.049,35.5171 339,34.5C 337.746,29.6895 338.913,25.6895 342.5,22.5C 343.452,24.0453 343.785,25.712 343.5,27.5C 348.213,27.5324 349.713,25.1991 348,20.5C 342.241,17.2382 337.408,18.2382 333.5,23.5C 333.756,21.0628 334.423,18.7294 335.5,16.5C 333.713,15.684 332.046,14.684 330.5,13.5C 330.968,11.8662 331.968,10.6995 333.5,10C 329.514,9.50115 325.514,9.33449 321.5,9.5 Z"/></g>
<g><path style="opacity:1" fill="#0db5e6" d="M 133.5,10.5 C 134.166,15.4889 134.499,20.6555 134.5,26C 134.623,31.9387 134.123,37.772 133,43.5C 116.298,60.0348 99.7982,76.7014 83.5,93.5C 71.5498,104.449 59.8831,115.782 48.5,127.5C 53.1537,116.354 58.6537,105.687 65,95.5C 66.7435,92.0433 67.7435,88.3767 68,84.5C 69.2567,82.3211 70.7567,80.3211 72.5,78.5C 73.1892,76.556 73.6892,74.556 74,72.5C 78.0748,69.0188 81.0748,64.6854 83,59.5C 83.3333,59.1667 83.6667,58.8333 84,58.5C 84.7253,60.158 85.892,60.658 87.5,60C 90.1735,57.5853 92.8401,55.0853 95.5,52.5C 99.7154,51.2023 103.882,51.2023 108,52.5C 109.351,50.981 110.851,49.6477 112.5,48.5C 111.619,47.0295 110.286,46.1962 108.5,46C 112.167,45.6667 115.833,45.3333 119.5,45C 122.099,42.2951 123.766,43.1285 124.5,47.5C 125.5,47.5 126.5,47.5 127.5,47.5C 126.908,43.926 128.408,41.926 132,41.5C 132.49,40.2068 132.657,38.8734 132.5,37.5C 131.5,37.5 130.5,37.5 129.5,37.5C 129.105,34.4775 130.105,33.4775 132.5,34.5C 133.498,26.5277 133.831,18.5277 133.5,10.5 Z"/></g>
<g><path style="opacity:1" fill="#53595b" d="M 290.5,40.5 C 291.568,39.5655 292.901,39.2322 294.5,39.5C 294.5,45.5 294.5,51.5 294.5,57.5C 293.511,52.0247 293.178,46.358 293.5,40.5C 292.5,40.5 291.5,40.5 290.5,40.5 Z"/></g>
<g><path style="opacity:1" fill="#152732" d="M 321.5,9.5 C 325.514,9.33449 329.514,9.50115 333.5,10C 331.968,10.6995 330.968,11.8662 330.5,13.5C 332.046,14.684 333.713,15.684 335.5,16.5C 334.423,18.7294 333.756,21.0628 333.5,23.5C 331.858,29.0335 332.358,34.3668 335,39.5C 335.671,40.2524 336.504,40.5858 337.5,40.5C 341.694,42.3883 345.194,41.3883 348,37.5C 348.273,39.1012 348.773,40.6012 349.5,42C 352.956,43.123 355.79,42.2896 358,39.5C 360.439,41.4977 362.939,41.831 365.5,40.5C 366.5,40.5 367.5,40.5 368.5,40.5C 370.5,40.5 372.5,40.5 374.5,40.5C 374.384,37.0897 376.05,35.7564 379.5,36.5C 379.5,37.5 379.5,38.5 379.5,39.5C 379.351,40.552 379.517,41.552 380,42.5C 383.451,44.1697 385.951,43.1697 387.5,39.5C 388.915,42.9592 391.249,43.9592 394.5,42.5C 395.167,44.1667 395.833,45.8333 396.5,47.5C 397.333,45.5 398.167,43.5 399,41.5C 399.333,36.1667 399.667,30.8333 400,25.5C 401.011,24.6634 402.178,24.33 403.5,24.5C 405.159,22.1238 406.493,19.4571 407.5,16.5C 409.149,16.0745 410.983,16.0745 413,16.5C 413.667,26.5 413.667,36.5 413,46.5C 412.662,41.4535 411.995,36.4535 411,31.5C 410.667,31.8333 410.333,32.1667 410,32.5C 410.05,38.0543 409.217,43.3876 407.5,48.5C 408.193,49.5178 408.859,50.5178 409.5,51.5C 380.165,51.6666 350.831,51.5 321.5,51C 319.641,49.4422 318.141,47.6089 317,45.5C 316.333,35.1667 316.333,24.8333 317,14.5C 317.996,12.3395 319.496,10.6728 321.5,9.5 Z"/></g>
<g><path style="opacity:1" fill="#0f7095" d="M 379.5,39.5 C 379.5,38.5 379.5,37.5 379.5,36.5C 376.05,35.7564 374.384,37.0897 374.5,40.5C 372.5,40.5 370.5,40.5 368.5,40.5C 369.887,33.0057 371.887,25.6724 374.5,18.5C 377.685,18.0196 380.519,18.6863 383,20.5C 384.596,27.0774 385.43,33.7441 385.5,40.5C 383.379,40.6747 381.379,40.3414 379.5,39.5 Z"/></g>
<g><path style="opacity:1" fill="#117498" d="M 386.5,18.5 C 391.833,18.5 397.167,18.5 402.5,18.5C 402.5,20.1667 402.5,21.8333 402.5,23.5C 400.5,23.5 398.5,23.5 396.5,23.5C 396.5,29.1667 396.5,34.8333 396.5,40.5C 394.5,40.5 392.5,40.5 390.5,40.5C 390.5,35.1667 390.5,29.8333 390.5,24.5C 389.167,24.5 387.833,24.5 386.5,24.5C 386.5,22.5 386.5,20.5 386.5,18.5 Z"/></g>
<g><path style="opacity:1" fill="#11759a" d="M 365.5,40.5 C 363.856,40.7135 362.356,40.3802 361,39.5C 360.503,36.854 360.336,34.1873 360.5,31.5C 358.856,31.2865 357.356,31.6198 356,32.5C 355.503,35.146 355.336,37.8127 355.5,40.5C 353.5,40.5 351.5,40.5 349.5,40.5C 349.837,33.1342 350.504,25.8008 351.5,18.5C 353.167,18.5 354.833,18.5 356.5,18.5C 356.5,21.1667 356.5,23.8333 356.5,26.5C 358.167,26.5 359.833,26.5 361.5,26.5C 361.5,23.5 361.5,20.5 361.5,17.5C 363.167,17.5 364.833,17.5 366.5,17.5C 366.799,25.253 366.466,32.9196 365.5,40.5 Z"/></g>
<g><path style="opacity:1" fill="#10759b" d="M 337.5,40.5 C 336.504,40.5858 335.671,40.2524 335,39.5C 332.358,34.3668 331.858,29.0335 333.5,23.5C 337.408,18.2382 342.241,17.2382 348,20.5C 349.713,25.1991 348.213,27.5324 343.5,27.5C 343.785,25.712 343.452,24.0453 342.5,22.5C 338.913,25.6895 337.746,29.6895 339,34.5C 340.049,35.5171 341.216,35.6838 342.5,35C 345.056,30.2204 346.556,30.3871 347,35.5C 344.752,38.8746 341.585,40.5413 337.5,40.5 Z"/></g>
<g><path style="opacity:1" fill="#858a8e" d="M 416.5,50.5 C 416.808,52.924 416.474,55.2573 415.5,57.5C 414.893,57.3764 414.56,57.0431 414.5,56.5C 415.167,54.5 415.833,52.5 416.5,50.5 Z"/></g>
<g><path style="opacity:1" fill="#152a2e" d="M 352.5,55.5 C 355.518,55.7038 358.518,56.0371 361.5,56.5C 361.666,61.8437 361.499,67.1771 361,72.5C 352.193,68.4058 345.193,70.4058 340,78.5C 339.5,90.8288 339.333,103.162 339.5,115.5C 334.167,115.5 328.833,115.5 323.5,115.5C 323.5,96.1667 323.5,76.8333 323.5,57.5C 328.5,57.5 333.5,57.5 338.5,57.5C 338.338,59.5273 338.505,61.5273 339,63.5C 342.696,59.2685 347.196,56.6018 352.5,55.5 Z"/></g>
<g><path style="opacity:1" fill="#15292c" d="M 234.5,56.5 C 249.75,54.1871 258.583,60.5204 261,75.5C 261.5,88.8292 261.667,102.163 261.5,115.5C 256.5,115.5 251.5,115.5 246.5,115.5C 246.667,103.495 246.5,91.4954 246,79.5C 243.093,69.2166 236.926,66.3833 227.5,71C 224.865,72.9605 223.031,75.4605 222,78.5C 221.5,90.8288 221.333,103.162 221.5,115.5C 216.167,115.5 210.833,115.5 205.5,115.5C 205.5,96.1667 205.5,76.8333 205.5,57.5C 210.5,57.5 215.5,57.5 220.5,57.5C 220.201,59.604 220.534,61.604 221.5,63.5C 225.492,60.3405 229.825,58.0072 234.5,56.5 Z"/></g>
<g><path style="opacity:1" fill="#545c5d" d="M 270.5,57.5 C 270.5,61.1667 270.5,64.8333 270.5,68.5C 273.385,68.1936 276.052,68.5269 278.5,69.5C 275.5,69.5 272.5,69.5 269.5,69.5C 269.183,65.2984 269.517,61.2984 270.5,57.5 Z"/></g>
<g><path style="opacity:1" fill="#505859" d="M 311.5,57.5 C 312.483,61.2984 312.817,65.2984 312.5,69.5C 306.5,69.5 300.5,69.5 294.5,69.5C 299.975,68.5111 305.642,68.1778 311.5,68.5C 311.5,64.8333 311.5,61.1667 311.5,57.5 Z"/></g>
<g><path style="opacity:1" fill="#132a2d" d="M 386.5,56.5 C 393.23,56.2264 399.897,56.7264 406.5,58C 413.097,60.2634 417.264,64.7634 419,71.5C 419.333,82.5 419.667,93.5 420,104.5C 422.041,105.423 424.208,105.756 426.5,105.5C 426.5,109.167 426.5,112.833 426.5,116.5C 420.442,117.685 414.442,117.351 408.5,115.5C 408.617,113.516 407.95,111.85 406.5,110.5C 395.64,118.628 384.307,119.461 372.5,113C 362.694,97.2648 366.694,86.5982 384.5,81C 391.492,80.5004 398.492,80.3337 405.5,80.5C 406.26,75.186 404.26,71.3527 399.5,69C 390.344,67.334 381.844,68.834 374,73.5C 373.501,68.8452 373.334,64.1785 373.5,59.5C 377.986,58.7314 382.32,57.7314 386.5,56.5 Z"/></g>
<g><path style="opacity:1" fill="#07bff1" d="M 126.5,7.5 C 128.527,7.33788 130.527,7.50454 132.5,8C 133.252,8.67076 133.586,9.5041 133.5,10.5C 133.831,18.5277 133.498,26.5277 132.5,34.5C 130.105,33.4775 129.105,34.4775 129.5,37.5C 130.5,37.5 131.5,37.5 132.5,37.5C 132.657,38.8734 132.49,40.2068 132,41.5C 128.408,41.926 126.908,43.926 127.5,47.5C 126.5,47.5 125.5,47.5 124.5,47.5C 123.766,43.1285 122.099,42.2951 119.5,45C 115.833,45.3333 112.167,45.6667 108.5,46C 110.286,46.1962 111.619,47.0295 112.5,48.5C 110.851,49.6477 109.351,50.981 108,52.5C 103.882,51.2023 99.7154,51.2023 95.5,52.5C 92.8401,55.0853 90.1735,57.5853 87.5,60C 85.892,60.658 84.7253,60.158 84,58.5C 83.6667,58.8333 83.3333,59.1667 83,59.5C 81.0748,64.6854 78.0748,69.0188 74,72.5C 73.6892,74.556 73.1892,76.556 72.5,78.5C 70.7567,80.3211 69.2567,82.3211 68,84.5C 67.7435,88.3767 66.7435,92.0433 65,95.5C 58.6537,105.687 53.1537,116.354 48.5,127.5C 47.5,127.833 46.8333,128.5 46.5,129.5C 42.9929,130.006 39.8263,129.34 37,127.5C 36.3333,118.167 36.3333,108.833 37,99.5C 52.2522,84.2478 67.5855,68.9145 83,53.5C 85.7167,50.2896 88.2167,46.9563 90.5,43.5C 102.14,31.1937 114.14,19.1937 126.5,7.5 Z"/></g>
<g><path style="opacity:1" fill="#f7f8f8" d="M 388.5,90.5 C 394.167,90.5 399.833,90.5 405.5,90.5C 404.888,101.947 398.888,107.113 387.5,106C 382.857,103.928 381.357,100.428 383,95.5C 384.406,93.2563 386.239,91.5897 388.5,90.5 Z"/></g>
<g><path style="opacity:1" fill="#087fa7" d="M 83.5,93.5 C 91.5069,93.3336 99.5069,93.5003 107.5,94C 112.837,98.5309 117.837,103.364 122.5,108.5C 127.158,112.658 131.658,116.991 136,121.5C 136.497,124.146 136.664,126.813 136.5,129.5C 106.5,129.5 76.5,129.5 46.5,129.5C 46.8333,128.5 47.5,127.833 48.5,127.5C 59.8831,115.782 71.5498,104.449 83.5,93.5 Z"/></g>
<g><path style="opacity:1" fill="#13292c" d="M 290.5,40.5 C 291.5,40.5 292.5,40.5 293.5,40.5C 293.178,46.358 293.511,52.0247 294.5,57.5C 300.167,57.5 305.833,57.5 311.5,57.5C 311.5,61.1667 311.5,64.8333 311.5,68.5C 305.642,68.1778 299.975,68.5111 294.5,69.5C 294.334,79.5056 294.5,89.5056 295,99.5C 295.785,101.286 296.951,102.786 298.5,104C 303.03,104.947 307.364,104.447 311.5,102.5C 312.492,106.783 312.826,111.116 312.5,115.5C 306.196,116.596 299.863,117.096 293.5,117C 286.772,115.273 282.272,111.106 280,104.5C 279.831,92.6595 279.331,80.9928 278.5,69.5C 276.052,68.5269 273.385,68.1936 270.5,68.5C 270.5,64.8333 270.5,61.1667 270.5,57.5C 273.5,57.5 276.5,57.5 279.5,57.5C 279.5,52.1667 279.5,46.8333 279.5,41.5C 283.154,41.0578 286.821,40.7244 290.5,40.5 Z"/></g>
<g><path style="opacity:1" fill="#14292c" d="M 158.5,56.5 C 184.191,54.1934 196.524,65.8601 195.5,91.5C 181.5,91.5 167.5,91.5 153.5,91.5C 154.175,97.3526 157.175,101.519 162.5,104C 172.766,106.649 182.266,105.149 191,99.5C 191.828,104.202 191.662,108.869 190.5,113.5C 178.689,118.155 166.689,118.655 154.5,115C 144.88,111.041 139.38,103.874 138,93.5C 135.515,75.7895 142.348,63.4562 158.5,56.5 Z"/></g>
<g><path style="opacity:1" fill="#f4f5f5" d="M 162.5,67.5 C 170.646,66.3024 176.479,69.3024 180,76.5C 180.494,78.1341 180.66,79.8008 180.5,81.5C 171.167,81.5 161.833,81.5 152.5,81.5C 153.185,74.8326 156.518,70.1659 162.5,67.5 Z"/></g>
<g><path style="opacity:1" fill="#018ab7" d="M 122.5,108.5 C 123.523,110.846 124.523,113.179 125.5,115.5C 126.5,115.5 127.5,115.5 128.5,115.5C 127.833,117.5 127.167,119.5 126.5,121.5C 128.29,120.987 129.956,120.487 131.5,120C 134.844,121.894 136.178,124.727 135.5,128.5C 120.833,128.5 106.167,128.5 91.5,128.5C 91.5,125.5 91.5,122.5 91.5,119.5C 96.0671,118.769 98.9004,116.102 100,111.5C 104.926,109.986 107.093,106.652 106.5,101.5C 108.143,101.52 109.476,100.853 110.5,99.5C 112.836,100.594 112.836,101.927 110.5,103.5C 112.415,105.071 113.415,107.071 113.5,109.5C 115.492,109.672 117.158,109.005 118.5,107.5C 119.736,108.246 121.07,108.579 122.5,108.5 Z"/></g>
</svg>
