<?xml version="1.0"?>
<svg width="1843.5" height="383.999986" xmlns="http://www.w3.org/2000/svg" xmlns:svg="http://www.w3.org/2000/svg" preserveAspectRatio="xMidYMid meet" version="1.0">
 <defs>
  <g id="svg_1"/>
  <clipPath id="cfa4db8569">
   <path clip-rule="nonzero" d="m293.83,35.06l395.17,0l0,319.82l-395.17,0l0,-319.82zm0,0" id="svg_2"/>
  </clipPath>
  <clipPath id="48ddfc0f90">
   <path clip-rule="nonzero" d="m415.88,169.1l51.92,0l0,51.92l-51.92,0l0,-51.92zm0,0" id="svg_3"/>
  </clipPath>
  <clipPath id="c0b084b784">
   <path clip-rule="nonzero" d="m733.84,89.1c-14.34,0 -25.96,11.62 -25.96,25.96c0,14.34 11.62,25.96 25.96,25.96c14.34,0 25.96,-11.62 25.96,-25.96c0,-14.34 -11.62,-25.96 -25.96,-25.96zm0,0" id="svg_4"/>
  </clipPath>
 </defs>
 <g class="layer">
  <title>Layer 1</title>
  <g clip-path="url(#cfa4db8569)" id="svg_5" transform="matrix(1 0 0 1 0 0)">
   <path d="m414.36,69.43l84.94,0c18.09,0 33.66,-4.19 49.38,-13.2l29,-16.75c2.45,-1.42 5.21,-1.42 7.58,0c2.45,1.43 3.79,3.79 3.79,6.56l0,23.39l59.02,0c13.91,0 25.29,11.37 25.29,25.28l0,76.72l18.57,0c3.79,0 6.95,3.16 6.95,6.95l0,39.35c0,3.79 -3.16,6.95 -6.95,6.95l-18.57,0l0,16.99c0,23.38 -9.56,44.64 -24.97,60.05c-15.41,15.41 -36.66,24.96 -60.05,24.96l-84.93,0c-18.09,0 -33.66,4.19 -49.38,13.2l-29,16.75c-2.45,1.42 -5.21,1.42 -7.58,0c-2.45,-1.42 -3.8,-3.79 -3.8,-6.56l0,-23.39l-59.02,0c-13.9,0 -25.28,-11.37 -25.28,-25.28l0,-76.72l-18.57,0c-3.79,0 -6.95,-3.16 -6.95,-6.95l0,-39.35c0,-3.79 3.16,-6.95 6.95,-6.95l18.57,0l0,-16.99c0,-23.39 9.56,-44.64 24.97,-60.05c15.4,-15.4 36.66,-24.96 60.04,-24.96zm59.34,128.62c0,-13.5 -10.98,-24.49 -24.49,-24.49c-13.51,0 -24.5,10.99 -24.5,24.49c0,13.52 10.99,24.5 24.5,24.5c13.51,0 24.49,-10.98 24.49,-24.5zm104.29,0c0,-13.5 -10.98,-24.49 -24.49,-24.49c-13.51,0 -24.49,10.99 -24.49,24.49c0,13.52 10.98,24.5 24.49,24.5c13.51,0 24.49,-10.98 24.49,-24.5zm63.76,0l0,-96.94c-7.42,0 -14.93,0 -22.36,0c-16.75,0 -30.34,-13.67 -30.34,-30.34l0,-1.26l-22.2,12.79c-22.36,12.88 -44.4,18.81 -70.24,18.81l-82.25,0c-14.69,0 -27.97,6.01 -37.68,15.72c-9.72,9.72 -15.73,22.99 -15.73,37.69l0,140.56c7.43,0 14.94,0 22.36,0c16.75,0 30.34,13.67 30.34,30.34l0,1.26l22.21,-12.8c22.35,-12.87 44.4,-18.8 70.23,-18.8l82.25,0c14.7,0 27.97,-6.01 37.69,-15.72c9.72,-9.72 15.72,-22.99 15.72,-37.69l0,-43.62zm0,0" fill="#ffffff" fill-rule="evenodd" id="svg_6"/>
   <text fill="#ffffff" font-family="Times" font-size="24" id="svg_24" stroke-width="0" text-anchor="middle" x="1109.7" xml:space="preserve" y="286.6">Soluções em Tecnologia</text>
  </g>
  <g clip-path="url(#48ddfc0f90)" id="svg_7" transform="matrix(1 0 0 1 0 0)">VML</g>
  <g fill="#29a2a7" id="svg_10" transform="matrix(1 0 0 1 0 0)">
   <text fill="#ffffff" font-family="Times" font-size="24" font-weight="bold" id="svg_23" stroke="#000000" stroke-width="0" text-anchor="middle" transform="matrix(11.5411 0 0 10.4184 -8768.07 -1525.11)" x="860.61" xml:space="preserve" y="168.8">VML</text>
  </g>
  <text fill="#ffffff" font-family="Fantasy" font-size="24" id="svg_25" stroke-width="0" text-anchor="middle" transform="matrix(1.91489 0 0 1.4881 -870.605 -148.742)" x="1107.14" xml:space="preserve" y="293.55">Soluções em Tecnologia</text>
 </g>
</svg>